Coordinates
version=1
nRows=14
nColumns=46
inDegrees=yes

Units are S.I. units (second, meters, Newtons, ...)
Angles are in degrees.

endheader
time	pelvis_tilt	pelvis_list	pelvis_rotation	pelvis_tx	pelvis_ty	pelvis_tz	bb_angle	bb_tx	bb_ty	bb_tz	hip_flexion_r	hip_adduction_r	hip_rotation_r	knee_angle_r	knee_angle_r_beta	ankle_angle_r	subtalar_angle_r	mtp_angle_r	crank_angle_r	hip_flexion_l	hip_adduction_l	hip_rotation_l	knee_angle_l	knee_angle_l_beta	ankle_angle_l	subtalar_angle_l	mtp_angle_l	crank_angle_l	lumbar_extension	lumbar_bending	lumbar_rotation	arm_flex_r	arm_add_r	arm_rot_r	elbow_flex_r	pro_sup_r	wrist_flex_r	wrist_dev_r	arm_flex_l	arm_add_l	arm_rot_l	elbow_flex_l	pro_sup_l	wrist_flex_l	wrist_dev_l
      2.50000000	    -16.41409747	     -6.60937590	      0.58597473	      0.10679102	      1.10213129	     -0.26475259	      0.00000000	      0.50000000	      0.00000000	      0.25000000	     78.67335862	     -2.01094867	     -2.49429271	    108.07373811	      1.88624256	     -4.56136858	    -14.00080054	      0.00000000	      0.00000000	     53.13094647	     -5.83720871	      8.56331997	     36.52562340	      0.63749239	    -11.64751189	    -14.52054785	      0.00000000	      0.00000000	    -57.85569036	      0.15992293	      4.96286478	     89.75659528	    -10.13080070	     33.52625679	     34.96512595	     23.77946378	      0.00000000	      0.00000000	     89.64573711	     -4.93770503	     34.05703416	     41.78056096	     25.59728858	      0.00000000	      0.00000000
      2.50500000	    -16.44961214	     -6.82303573	      0.33546261	      0.10789210	      1.10272185	     -0.26515372	      0.00000000	      0.50000000	      0.00000000	      0.25000000	     79.55490572	     -1.93818860	     -2.60778156	    108.90000098	      1.90066357	     -4.03918833	    -13.64573575	      0.00000000	      0.00000000	     52.14180704	     -6.36836710	      8.29009292	     35.31877166	      0.61642885	    -12.63849766	    -13.77493855	      0.00000000	      0.00000000	    -57.77580492	      0.19320667	      5.16905678	     89.76018992	     -9.89488249	     33.75729529	     34.65112111	     23.59719354	      0.00000000	      0.00000000	     89.64706321	     -4.90369112	     34.25677342	     41.36924383	     25.49750406	      0.00000000	      0.00000000
      2.51000000	    -16.57512648	     -7.00342702	      0.01583439	      0.10918954	      1.10351826	     -0.26576774	      0.00000000	      0.50000000	      0.00000000	      0.25000000	     80.47256730	     -1.84466858	     -2.71347478	    109.59963130	      1.91287443	     -3.09300418	    -13.72854916	      0.00000000	      0.00000000	     51.17672579	     -6.89476293	      7.91817119	     34.05981739	      0.59445596	    -13.62166671	    -13.02960280	      0.00000000	      0.00000000	    -57.67581968	      0.19181736	      5.39741922	     89.75833384	     -9.71192428	     33.84393528	     34.57897068	     23.53834973	      0.00000000	      0.00000000	     89.63709595	     -4.90993460	     34.31840304	     41.21031725	     25.45604245	      0.00000000	      0.00000000
      2.51500000	    -16.69770225	     -7.25443817	     -0.18188085	      0.11006092	      1.10420686	     -0.26625821	      0.00000000	      0.50000000	      0.00000000	      0.25000000	     81.39748732	     -1.75075655	     -2.86562557	    110.24838956	      1.92419739	     -2.76772975	    -13.49876390	      0.00000000	      0.00000000	     50.27895957	     -7.41894767	      7.61001892	     32.85304127	      0.57339374	    -14.54313343	    -12.20981718	      0.00000000	      0.00000000	    -57.55188942	      0.32186589	      5.65186001	     89.76108099	     -9.49575850	     33.93614770	     34.46100447	     23.48707786	      0.00000000	      0.00000000	     89.63393020	     -4.92725675	     34.38302949	     41.01946220	     25.41650031	      0.00000000	      0.00000000
      2.52000000	    -16.65504403	     -7.25879273	     -0.44184066	      0.11102797	      1.10528581	     -0.26661592	      0.00000000	      0.50000000	      0.00000000	      0.25000000	     82.15700202	     -1.65216904	     -2.71773379	    110.88180406	      1.93525256	     -1.82257722	    -12.76700411	      0.00000000	      0.00000000	     49.12307288	     -7.84134946	      6.94111529	     31.62744935	      0.55200313	    -15.49461430	    -11.39492032	      0.00000000	      0.00000000	    -57.53966895	      0.15863508	      5.61721332	     89.76457880	     -9.10203022	     34.16758903	     33.81873881	     23.24632103	      0.00000000	      0.00000000	     89.64935020	     -4.87857080	     34.69934050	     40.32999076	     25.27533031	      0.00000000	      0.00000000
      2.52500000	    -16.87048845	     -7.55960105	     -0.54146292	      0.11169175	      1.10589876	     -0.26724317	      0.00000000	      0.50000000	      0.00000000	      0.25000000	     83.14518028	     -1.65370769	     -2.97078978	    111.36686517	      1.94371847	     -1.27354609	    -12.77757745	      0.00000000	      0.00000000	     48.42233437	     -8.31470815	      6.71165419	     30.63359448	      0.53465709	    -16.23194816	    -10.56008968	      0.00000000	      0.00000000	    -57.32609354	      0.42990582	      5.83365327	     89.76454016	     -8.89750503	     34.23993272	     33.77338966	     23.20858833	      0.00000000	      0.00000000	     89.64389824	     -4.95281383	     34.72994599	     40.20938257	     25.24522894	      0.00000000	      0.00000000
      2.53000000	    -17.04387390	     -7.76682104	     -0.64165621	      0.11235121	      1.10667426	     -0.26784128	      0.00000000	      0.50000000	      0.00000000	      0.25000000	     84.06946913	     -1.66905665	     -3.11470808	    111.78136387	      1.95095284	     -0.79204194	    -12.72907808	      0.00000000	      0.00000000	     47.67211877	     -8.73971628	      6.24365501	     29.61882202	      0.51694596	    -17.06765204	     -9.68096457	      0.00000000	      0.00000000	    -57.16296286	      0.63742780	      5.93970047	     89.76494537	     -8.63202321	     34.33413925	     33.67142428	     23.16081235	      0.00000000	      0.00000000	     89.64071000	     -5.04728518	     34.78459456	     40.00905360	     25.20127208	      0.00000000	      0.00000000
      2.53500000	    -17.01495184	     -7.69524952	     -0.84607841	      0.11319593	      1.10784838	     -0.26819738	      0.00000000	      0.50000000	      0.00000000	      0.25000000	     84.80906842	     -1.62086758	     -2.94974227	    112.18928894	      1.95807248	     -0.08931466	    -12.38340455	      0.00000000	      0.00000000	     46.57845179	     -9.05903293	      5.37984613	     28.56940053	      0.49863010	    -17.78667679	     -8.70723918	      0.00000000	      0.00000000	    -57.16221427	      0.50125194	      5.64946446	     89.77110004	     -7.97403344	     34.59243352	     32.97854816	     22.88673063	      0.00000000	      0.00000000	     89.66476850	     -5.31794003	     35.19504785	     39.38226897	     25.05927793	      0.00000000	      0.00000000
      2.54000000	    -17.24535472	     -7.87484075	     -0.86862642	      0.11371396	      1.10850291	     -0.26903349	      0.00000000	      0.50000000	      0.00000000	      0.25000000	     85.75850472	     -1.74794849	     -3.10961735	    112.43145756	      1.96229912	      0.32946959	    -12.46446323	      0.00000000	      0.00000000	     45.97097058	     -9.36180242	      4.91510849	     27.75485943	      0.48441368	    -18.46696483	     -8.02297510	      0.00000000	      0.00000000	    -56.97182282	      0.80592548	      5.72551696	     89.77256386	     -7.74866290	     34.65665398	     32.98567839	     22.85814486	      0.00000000	      0.00000000	     89.65838566	     -5.44837243	     35.22544584	     39.29679263	     25.03341496	      0.00000000	      0.00000000
      2.54500000	    -17.27130019	     -7.74442738	     -1.01000665	      0.11435611	      1.10961701	     -0.26950555	      0.00000000	      0.50000000	      0.00000000	      0.25000000	     86.52047676	     -1.74658435	     -2.92874550	    112.64097734	      1.96595593	      0.75048984	    -12.32002926	      0.00000000	      0.00000000	     45.00511589	     -9.54513120	      4.05903035	     26.85216464	      0.46865868	    -19.13101327	     -7.16313790	      0.00000000	      0.00000000	    -56.94863211	      0.70441386	      5.28833716	     89.77505681	     -7.11628846	     34.81708840	     32.63507772	     22.67127555	      0.00000000	      0.00000000	     89.67388547	     -5.88161149	     35.49136956	     38.96369572	     24.93963067	      0.00000000	      0.00000000
      2.55000000	    -17.48489642	     -7.83367409	     -1.01922060	      0.11472024	      1.11034748	     -0.27027315	      0.00000000	      0.50000000	      0.00000000	      0.25000000	     87.40439367	     -1.85077819	     -3.00324172	    112.70915568	      1.96714586	      1.14893249	    -12.41845625	      0.00000000	      0.00000000	     44.42273580	     -9.74543501	      3.59514461	     26.17704714	      0.45687566	    -19.73972498	     -6.52867385	      0.00000000	      0.00000000	    -56.77519077	      0.92177604	      5.22159080	     89.77586948	     -6.88844513	     34.84849679	     32.63735186	     22.63443939	      0.00000000	      0.00000000	     89.67604253	     -6.08058899	     35.50951400	     38.90266106	     24.91338494	      0.00000000	      0.00000000
      2.55500000	    -17.66441173	     -7.80663804	     -1.04949214	      0.11506374	      1.11116294	     -0.27098049	      0.00000000	      0.50000000	      0.00000000	      0.25000000	     88.23155501	     -1.93013826	     -2.94748820	    112.67925252	      1.96662396	      1.45724392	    -12.50546317	      0.00000000	      0.00000000	     43.79863064	     -9.84627828	      3.06654065	     25.56925258	      0.44626764	    -20.35763431	     -5.87343270	      0.00000000	      0.00000000	    -56.63419153	      1.03111115	      4.97888391	     89.77512575	     -6.56344624	     34.89406362	     32.62780439	     22.59348274	      0.00000000	      0.00000000	     89.68205129	     -6.35021405	     35.50391264	     38.80674888	     24.87658235	      0.00000000	      0.00000000
      2.56000000	    -17.77887932	     -7.71009234	     -1.11045120	      0.11540135	      1.11210351	     -0.27160572	      0.00000000	      0.50000000	      0.00000000	      0.25000000	     88.94790691	     -1.96674387	     -2.82980990	    112.55880952	      1.96452183	      1.77912508	    -12.63143933	      0.00000000	      0.00000000	     43.13358752	     -9.90950922	      2.42566620	     25.06594780	      0.43748332	    -20.78949638	     -5.37339643	      0.00000000	      0.00000000	    -56.58597261	      1.03675994	      4.60138176	     89.77641191	     -6.13644564	     34.93287916	     32.60869523	     22.54261362	      0.00000000	      0.00000000	     89.68497756	     -6.67897928	     35.55821756	     38.60759989	     24.82019356	      0.00000000	      0.00000000
      2.56500000	    -17.87034404	     -7.59529983	     -1.15390063	      0.11567581	      1.11303841	     -0.27213061	      0.00000000	      0.50000000	      0.00000000	      0.25000000	     89.58769698	     -2.01153714	     -2.73934096	    112.33133936	      1.96055173	      2.02561432	    -12.85103483	      0.00000000	      0.00000000	     42.54823917	     -9.92886914	      1.90243419	     24.79170964	      0.43269696	    -21.07385808	     -4.97557798	      0.00000000	      0.00000000	    -56.55261103	      1.04755082	      4.18790671	     89.77698603	     -5.67697991	     34.94927573	     32.52374169	     22.46810842	      0.00000000	      0.00000000	     89.69378024	     -7.06197297	     35.62552949	     38.44258877	     24.76358906	      0.00000000	      0.00000000
